<svg width="36" height="36" viewBox="0 0 36 36" fill="none" xmlns="http://www.w3.org/2000/svg">
<path d="M23.9079 10.1437V15.7722H12.6205V10.1437C12.6205 7.02522 15.1457 4.5 18.2642 4.5C19.8311 4.5 21.2306 5.13891 22.2574 6.15052C23.2766 7.17734 23.9079 8.57686 23.9079 10.1437V10.1437Z" fill="#656565"/>
<path d="M12.6205 16.2286H23.9079V18.9364C23.9079 22.0549 21.3827 24.5801 18.2642 24.5801C15.1457 24.5801 12.6205 22.0549 12.6205 18.9364V16.2286V16.2286Z" fill="#656565"/>
<path d="M26.6841 15.9928C26.2202 15.9928 25.8475 16.3655 25.8475 16.8295V18.556C25.8475 22.5949 22.805 26.1241 18.7738 26.3903C14.3547 26.6869 10.6733 23.1729 10.6733 18.8222V16.8295C10.6733 16.3655 10.3006 15.9928 9.83667 15.9928C9.3727 15.9928 9 16.3655 9 16.8295V18.556C9 23.3707 12.5673 27.5921 17.3591 28.0408C17.3667 28.0408 17.3819 28.0408 17.3895 28.0408V31.281H15.8607C15.3815 31.281 15.0012 31.6689 15.0012 32.1405C15.0012 32.6121 15.3891 33 15.8607 33H20.47C20.9492 33 21.3295 32.6121 21.3295 32.1405C21.3295 31.6689 20.9416 31.281 20.47 31.281H19.1161V28.0332C23.8167 27.5921 27.5056 23.6369 27.5056 18.8299V16.8371C27.5056 16.3731 27.1329 16.0004 26.6689 16.0004L26.6841 15.9928Z" fill="#656565"/>
<path d="M18.2642 11.8551C18.7011 11.8551 19.0552 11.5009 19.0552 11.064C19.0552 10.6272 18.7011 10.273 18.2642 10.273C17.8273 10.273 17.4732 10.6272 17.4732 11.064C17.4732 11.5009 17.8273 11.8551 18.2642 11.8551Z" fill="#656565"/>
<path d="M18.2642 9.02561C18.6086 9.02561 18.8879 8.74637 18.8879 8.40191C18.8879 8.05745 18.6086 7.77821 18.2642 7.77821C17.9197 7.77821 17.6405 8.05745 17.6405 8.40191C17.6405 8.74637 17.9197 9.02561 18.2642 9.02561Z" fill="#656565"/>
</svg>
